<svg width="63" height="56" viewBox="0 0 63 56" fill="none" xmlns="http://www.w3.org/2000/svg">
<path d="M10.4181 41.4867C10.3068 41.4304 10.2142 41.3436 10.1513 41.2367C10.0885 41.1297 10.0582 41.0072 10.0639 40.8837V32.9593C10.0545 32.8349 10.0832 32.7104 10.1464 32.6023C10.2096 32.4942 10.3043 32.4075 10.4181 32.3534H8.66492L5.7151 39.2453L2.73848 32.3534H0.892984C1.01167 32.4077 1.11332 32.4927 1.18719 32.5993C1.26106 32.706 1.30442 32.8304 1.31269 32.9593V40.8837C1.31907 41.007 1.28932 41.1294 1.22702 41.2364C1.16472 41.3433 1.0725 41.4303 0.961445 41.4867H2.33069C2.21594 41.4321 2.11921 41.3465 2.05177 41.2398C1.98432 41.133 1.94892 41.0095 1.94968 40.8837V34.1536C1.94968 34.033 1.92289 33.8035 1.92289 33.8035L2.04493 34.1536L5.33706 41.675L8.69469 33.9389L8.78994 33.6447C8.77127 33.7417 8.76131 33.8401 8.76017 33.9389V40.9102C8.76655 41.0334 8.73681 41.1559 8.67451 41.2628C8.6122 41.3698 8.51999 41.4567 8.40893 41.5132L10.4181 41.4867ZM18.2734 41.1778C17.8507 41.1102 17.7287 40.816 17.7287 40.4131V35.136L16.0975 35.4567C16.3178 35.5243 16.5738 35.5773 16.5738 35.995V40.1307C16.1809 40.5072 15.7999 40.816 15.1331 40.816C14.3592 40.816 13.7311 40.2278 13.7311 39.0835V35.136L12.091 35.4567C12.2934 35.5243 12.5524 35.5773 12.5524 35.995V39.0835C12.5524 41.0837 13.8145 41.6073 14.6152 41.6073C14.9957 41.6034 15.3709 41.5174 15.7143 41.3553C16.0578 41.1933 16.3612 40.959 16.6035 40.669C16.6035 41.272 16.7643 41.419 17.0917 41.6073L18.2824 41.1778H18.2734ZM23.7683 39.7424C23.7683 38.6393 22.8187 38.1275 21.9466 37.6304C21.2262 37.2274 20.7916 36.9745 20.7916 36.4097C20.7916 36.0597 21.1161 35.6037 21.8126 35.6037C22.6401 35.6037 23.0896 36.4362 23.3009 37.1333V35.5243C22.8445 35.2764 22.3334 35.143 21.8126 35.136C20.3035 35.136 19.8004 36.1126 19.8004 36.7715C19.8004 37.5392 20.1398 37.9687 21.1994 38.5864C22.152 39.1365 22.6401 39.3365 22.6401 39.9954C22.6334 40.1475 22.5957 40.2967 22.5292 40.434C22.4627 40.5713 22.3688 40.6939 22.2532 40.7945C22.1375 40.895 22.0025 40.9715 21.8562 41.0191C21.7099 41.0668 21.5553 41.0848 21.4018 41.072C20.5089 41.072 19.8957 40.1895 19.6784 39.2423V40.9778C20.2056 41.3574 20.8337 41.5762 21.4852 41.6073C22.4764 41.6073 23.7683 40.9778 23.7683 39.7424ZM30.8079 37.9128C30.8079 35.9244 29.4089 35.136 28.254 35.136C26.1704 35.136 25.1286 36.9333 25.1286 38.3981C25.1286 39.9954 26.2954 41.6073 28.2123 41.6073C29.6679 41.6073 30.7127 40.5337 30.7544 39.4306C30.546 39.8304 30.2356 40.1695 29.854 40.4146C29.4724 40.6596 29.0328 40.802 28.5785 40.8278C27.1378 40.8278 26.4055 39.6512 26.4055 38.2893V37.9128H30.8079ZM29.5578 37.4186H26.4591C26.5663 36.4891 27.0961 35.6155 28.0903 35.6155C28.8374 35.6155 29.5578 36.1126 29.5578 37.4186ZM38.3983 41.1778C37.9756 41.1102 37.8536 40.816 37.8536 40.4131V35.136L36.2254 35.4567C36.4427 35.5243 36.6987 35.5773 36.6987 35.995V40.1307C36.3057 40.5072 35.9247 40.816 35.258 40.816C34.4841 40.816 33.859 40.2278 33.859 39.0835V35.136L32.2159 35.4567C32.4183 35.5243 32.6772 35.5773 32.6772 35.995V39.0835C32.6772 41.0837 33.9393 41.6073 34.743 41.6073C35.1232 41.6034 35.4978 41.5174 35.8408 41.3553C36.1838 41.1932 36.4867 40.9589 36.7284 40.669C36.7284 41.272 36.8892 41.419 37.2166 41.6073L38.4072 41.1778H38.3983ZM49.8553 41.4867C49.638 41.3661 49.5011 41.272 49.5011 40.9778V36.9745C49.5011 35.7096 48.4146 35.136 47.4918 35.136C46.6197 35.136 45.7624 35.7655 45.3427 36.3126C45.1922 35.954 44.9347 35.6493 44.6044 35.4391C44.2742 35.2289 43.8869 35.1232 43.4943 35.136C42.5715 35.136 41.8363 35.8038 41.5089 36.0597V35.136L39.8539 35.4567C40.0831 35.5243 40.342 35.5773 40.342 35.992V40.9778C40.342 41.272 40.2051 41.3661 39.9878 41.4867H41.8899C41.6726 41.3661 41.5089 41.272 41.5089 40.9778V36.5833C41.6746 36.3779 41.8833 36.2103 42.1206 36.092C42.358 35.9737 42.6184 35.9075 42.8841 35.8979C43.9705 35.8979 44.2979 36.5568 44.2979 37.3216V40.9778C44.2979 41.272 44.161 41.3661 43.9437 41.4867H45.8398C45.6225 41.3661 45.4886 41.272 45.4886 40.9778V36.948C45.4933 36.879 45.4832 36.8098 45.4588 36.745C45.6246 36.5045 45.8426 36.3036 46.097 36.157C46.3515 36.0104 46.6358 35.9219 46.9293 35.8979C47.977 35.8979 48.358 36.5832 48.358 37.3686V40.9778C48.358 41.272 48.1794 41.3661 47.977 41.4867H49.8553ZM6.31935 17.3518V16.237H0.892984C1.00984 16.2888 1.10845 16.3739 1.1763 16.4812C1.24414 16.5886 1.27815 16.7135 1.27399 16.84V24.7673C1.28241 24.8927 1.24996 25.0175 1.1814 25.1234C1.11283 25.2292 1.01176 25.3106 0.892984 25.3556H2.95577C2.83435 25.3116 2.72983 25.2313 2.65675 25.1258C2.58366 25.0204 2.54564 24.8951 2.54798 24.7673L2.57477 20.5727H4.81914C4.92357 20.5924 5.02156 20.6369 5.10457 20.7026C5.18758 20.7682 5.25309 20.8529 5.29539 20.9492V19.6491C5.25353 19.7458 5.18815 19.8307 5.10507 19.8964C5.02198 19.9621 4.92376 20.0065 4.81914 20.0256H2.57477V16.7988C2.57477 16.7988 4.84592 16.84 5.17037 16.8518C5.83714 16.8665 6.13777 17.04 6.32828 17.3636L6.31935 17.3518ZM8.83161 16.9753C8.83161 16.799 8.76073 16.6299 8.63457 16.5052C8.50842 16.3806 8.33731 16.3105 8.1589 16.3105C7.98048 16.3105 7.80937 16.3806 7.68321 16.5052C7.55705 16.6299 7.48618 16.799 7.48618 16.9753C7.48618 17.1516 7.55705 17.3207 7.68321 17.4454C7.80937 17.57 7.98048 17.6401 8.1589 17.6401C8.33731 17.6401 8.50842 17.57 8.63457 17.4454C8.76073 17.3207 8.83161 17.1516 8.83161 16.9753ZM9.12927 25.3674C8.91198 25.2497 8.77505 25.1556 8.77505 24.8614V19.0167L7.12006 19.3373C7.33735 19.405 7.59334 19.4609 7.59334 19.8756V24.8761C7.59334 25.1703 7.44451 25.2644 7.2421 25.3821L9.12927 25.3674ZM14.5378 24.5791C14.4298 24.6993 14.2952 24.7932 14.1444 24.8534C13.9936 24.9136 13.8308 24.9385 13.6686 24.9261C13.2459 24.9261 12.4303 24.7938 12.4303 23.5289V19.7403H14.3354V19.1785H12.4571V17.9431L10.6801 19.7403H11.2754V23.5436C11.2754 24.832 12.0761 25.4909 13.1626 25.4909C13.9514 25.4909 14.5199 24.9261 14.5348 24.5791H14.5378ZM20.3035 24.1525C20.1546 24.4202 20.0862 24.7408 19.4998 24.785C18.196 24.8644 17.0679 24.8526 16.6601 24.8526L20.1814 19.1697H15.3296L15.2879 20.1904C15.3445 20.0442 15.4457 19.919 15.5773 19.8321C15.709 19.7451 15.8648 19.7007 16.0231 19.705C16.6601 19.6785 17.9371 19.6785 18.5503 19.705L15.0021 25.3674H20.241L20.3094 24.1614L20.3035 24.1525ZM30.6026 19.1697H28.8731C28.9525 19.1906 29.0267 19.2275 29.0909 19.2781C29.1552 19.3288 29.2081 19.392 29.2464 19.4638C29.2847 19.5357 29.3076 19.6146 29.3135 19.6956C29.3195 19.7766 29.3084 19.8579 29.2809 19.9344L27.8135 23.373L26.5365 19.8021C26.4412 19.5079 26.5752 19.2903 26.983 19.1697H24.4707C24.6284 19.188 24.7782 19.2476 24.9048 19.3422C25.0315 19.4368 25.1303 19.5631 25.1911 19.708L25.3935 20.1492L24.1106 23.4378L22.7919 19.8109C22.6818 19.502 22.8336 19.2991 23.2146 19.1785H20.8333C20.9861 19.2317 21.1245 19.3188 21.238 19.433C21.3515 19.5472 21.437 19.6855 21.4882 19.8374L23.8099 25.5027L25.6822 20.9169L27.3848 25.5027L29.915 19.8786C30.0482 19.5719 30.2893 19.3232 30.5936 19.1785L30.6026 19.1697ZM33.4244 16.9665C33.413 16.7982 33.3374 16.6405 33.2128 16.5252C33.0881 16.41 32.9238 16.3459 32.7532 16.3459C32.5825 16.3459 32.4182 16.41 32.2936 16.5252C32.1689 16.6405 32.0933 16.7982 32.0819 16.9665C32.0758 17.0573 32.0886 17.1484 32.1196 17.2341C32.1505 17.3199 32.199 17.3984 32.2619 17.4649C32.3248 17.5313 32.4009 17.5843 32.4854 17.6205C32.5699 17.6568 32.661 17.6755 32.7532 17.6755C32.8453 17.6755 32.9364 17.6568 33.0209 17.6205C33.1054 17.5843 33.1815 17.5313 33.2444 17.4649C33.3073 17.3984 33.3558 17.3199 33.3867 17.2341C33.4177 17.1484 33.4305 17.0573 33.4244 16.9665ZM33.722 25.3585C33.5048 25.2409 33.3708 25.1468 33.3708 24.8526V19.0167L31.7128 19.3373C31.9301 19.405 32.1891 19.4609 32.1891 19.8756V24.8761C32.1891 25.1703 32.0403 25.2644 31.8349 25.3821L33.722 25.3585ZM37.419 25.3585C37.2017 25.2409 37.0678 25.1468 37.0678 24.8526V16.1164L35.383 16.44C35.6271 16.5194 35.886 16.5606 35.886 16.9753V24.8614C35.886 25.1556 35.7372 25.2497 35.5318 25.3674L37.419 25.3585ZM41.1159 25.3585C40.8987 25.2409 40.7647 25.1468 40.7647 24.8526V16.1164L39.0799 16.44C39.324 16.5194 39.583 16.5606 39.583 16.9753V24.8614C39.583 25.1556 39.4342 25.2497 39.2288 25.3674L41.1159 25.3585ZM44.5004 16.9665C44.489 16.7982 44.4134 16.6405 44.2887 16.5252C44.1641 16.41 43.9998 16.3459 43.8291 16.3459C43.6585 16.3459 43.4942 16.41 43.3695 16.5252C43.2449 16.6405 43.1692 16.7982 43.1579 16.9665C43.1518 17.0573 43.1646 17.1484 43.1956 17.2341C43.2265 17.3199 43.275 17.3984 43.3379 17.4649C43.4008 17.5313 43.4769 17.5843 43.5614 17.6205C43.6459 17.6568 43.737 17.6755 43.8291 17.6755C43.9212 17.6755 44.0124 17.6568 44.0969 17.6205C44.1814 17.5843 44.2574 17.5313 44.3204 17.4649C44.3833 17.3984 44.4317 17.3199 44.4627 17.2341C44.4937 17.1484 44.5065 17.0573 44.5004 16.9665ZM44.798 25.3585C44.5807 25.2409 44.4438 25.1468 44.4438 24.8526V19.0167L42.7888 19.3373C43.0061 19.405 43.2651 19.4609 43.2651 19.8756V24.8761C43.2651 25.1703 43.1133 25.2644 42.9108 25.3821L44.798 25.3585ZM51.5281 25.035C51.0935 24.9556 51.1203 24.7408 51.1203 24.4173V20.8287C51.1203 19.2461 49.7749 19.0167 48.9891 19.0167C48.2171 18.9976 47.4608 19.2336 46.84 19.6874L46.8697 21.3522C47.1942 20.3874 47.6704 19.5256 48.8254 19.5256C48.9836 19.5148 49.1423 19.538 49.2906 19.5936C49.4389 19.6492 49.5733 19.7359 49.6844 19.8477C49.7956 19.9595 49.8809 20.0938 49.9346 20.2413C49.9882 20.3888 50.0089 20.546 49.9952 20.7022C50.005 20.8912 49.9859 21.0806 49.9386 21.264C49.5189 21.7082 47.8877 21.9111 47.1674 22.3406C46.8909 22.4885 46.6601 22.7078 46.4997 22.9751C46.3393 23.2424 46.2553 23.5476 46.2566 23.8584C46.2538 24.0721 46.2939 24.2842 46.3746 24.4825C46.4552 24.6807 46.5749 24.8613 46.7265 25.0136C46.8782 25.1659 47.0589 25.2871 47.2582 25.37C47.4575 25.4529 47.6715 25.496 47.8877 25.4968C48.2896 25.4835 48.6846 25.3898 49.0489 25.2214C49.4131 25.0531 49.7391 24.8135 50.0071 24.5173C50.0369 25.1615 50.1708 25.3085 50.4833 25.5086L51.5281 25.0526V25.035ZM50.0071 24.0408C49.8115 24.2567 49.5726 24.4301 49.3057 24.5501C49.0388 24.6701 48.7495 24.734 48.4563 24.7379C47.8163 24.7379 47.4234 24.3349 47.4234 23.6231C47.4234 22.9112 47.9115 22.6024 48.5515 22.3759C49.0478 22.2378 49.5341 22.0668 50.0071 21.8641V24.0408ZM63.0119 25.3674C62.7946 25.2497 62.6577 25.1556 62.6577 24.8614V20.8551C62.6577 19.5932 61.5712 19.0167 60.6485 19.0167C59.7763 19.0167 58.922 19.6462 58.4994 20.1933C58.3485 19.835 58.0909 19.5305 57.7607 19.3203C57.4305 19.1101 57.0434 19.0042 56.6509 19.0167C55.7281 19.0167 54.9929 19.6874 54.6655 19.9433V19.0167L53.0105 19.3403C53.2427 19.405 53.4987 19.4609 53.4987 19.8756V24.8761C53.4987 25.1703 53.3647 25.2644 53.1474 25.3821H55.0465C54.8292 25.2644 54.6655 25.1703 54.6655 24.8761V20.4669C54.8315 20.2618 55.0402 20.0944 55.2775 19.9761C55.5148 19.8579 55.7751 19.7915 56.0407 19.7815C57.1271 19.7815 57.4546 20.4404 57.4546 21.2052V24.8614C57.4546 25.1556 57.3176 25.2497 57.1004 25.3674H58.9875C58.7702 25.2497 58.6363 25.1556 58.6363 24.8614V20.8287C58.641 20.7606 58.6309 20.6924 58.6065 20.6286C58.7723 20.3881 58.9903 20.1872 59.2447 20.0406C59.4991 19.8941 59.7835 19.8055 60.077 19.7815C61.1247 19.7815 61.5057 20.4669 61.5057 21.2522V24.8556C61.5057 25.1497 61.3271 25.2438 61.1247 25.3615L63.0119 25.3674ZM7.16173 1.28836L7.14684 0.111769H0V1.28836C0.0667566 1.15178 0.165633 1.03298 0.288364 0.941889C0.411095 0.850799 0.554112 0.790068 0.705456 0.764779C0.705456 0.764779 1.91694 0.670658 2.93494 0.670658V8.64797C2.94143 8.76929 2.91157 8.88981 2.84909 8.99445C2.78662 9.09909 2.6943 9.1832 2.5837 9.23626H4.59291C4.48343 9.18157 4.39197 9.09719 4.32925 8.993C4.26652 8.88882 4.23511 8.76914 4.2387 8.64797V0.670658C5.22991 0.670658 6.45329 0.764779 6.45329 0.764779C6.60577 0.787949 6.75015 0.847827 6.87369 0.939133C6.99723 1.03044 7.09615 1.15037 7.16173 1.28836ZM14.133 9.25097C13.9008 9.13331 13.7787 9.03918 13.7787 8.74209V4.7652C13.7787 3.52978 12.8024 2.9003 11.7398 2.9003C10.8468 2.9003 9.98653 3.59743 9.68589 3.85334V0L8.03685 0.326501C8.25415 0.405921 8.51311 0.473577 8.51311 0.861853V8.74503C8.51311 9.03918 8.39107 9.13625 8.1589 9.25391H10.0729C9.82877 9.13625 9.69185 9.04212 9.69185 8.74503V4.39164C9.87485 4.17657 10.1024 4.00279 10.3591 3.88202C10.6159 3.76125 10.8959 3.6963 11.1802 3.69156C12.2964 3.69156 12.6357 4.41811 12.6357 5.20937V8.73915C12.6357 9.0333 12.4869 9.13036 12.2696 9.24802L14.133 9.25097ZM21.3631 5.68001C21.3631 3.69156 19.9641 2.9003 18.8092 2.9003C16.7256 2.9003 15.6838 4.70049 15.6838 6.16241C15.6838 7.76257 16.8506 9.37157 18.7675 9.37157C20.2231 9.37157 21.2679 8.30086 21.3066 7.19781C21.0991 7.59772 20.7895 7.93708 20.4083 8.18217C20.0271 8.42727 19.5877 8.56959 19.1337 8.59501C17.693 8.59501 16.9578 7.41843 16.9578 6.05652V5.68001H21.3631ZM20.113 5.1829H17.0113C17.1215 4.25633 17.6513 3.38271 18.6455 3.38271C19.3926 3.38271 20.113 3.87982 20.113 5.1829ZM6.0961 54.3498C5.50078 55.5941 4.52445 55.6176 4.16726 55.6176C2.51226 55.6176 1.8842 54.2704 1.8842 53.1409C1.8842 51.8731 2.66109 50.823 4.17619 50.823C4.58385 50.8202 4.98256 50.9411 5.31845 51.1694C5.65434 51.3977 5.91123 51.7224 6.05443 52.0996C6.07229 52.1319 5.98299 50.9406 5.98299 50.9406C5.39908 50.6621 4.76184 50.5097 4.11368 50.4935C2.09851 50.4935 1.07753 51.9113 1.07753 53.2438C1.07753 54.8822 2.45571 55.9618 4.02438 55.9618C4.72711 55.9626 5.41743 55.7789 6.02467 55.4294C6.02467 55.4294 6.11098 54.3263 6.0961 54.3498ZM11.96 55.8912C11.6832 55.7676 11.6266 55.6735 11.5641 55.5088L9.39121 50.4406C9.39121 50.4406 7.35521 55.2117 7.21829 55.5088C7.14054 55.6705 7.01357 55.8042 6.85514 55.8912H7.82254C7.61715 55.8147 7.59334 55.6882 7.65585 55.5088C7.68859 55.4146 7.89397 54.8969 8.15592 54.3086H10.2098C10.4539 54.9116 10.6771 55.4146 10.7247 55.5088C10.7872 55.6882 10.7247 55.8029 10.5253 55.8912H11.96ZM10.0729 53.9733H8.28689C8.63515 53.1262 9.17987 51.779 9.17987 51.779C9.17987 51.779 9.66506 52.985 10.0729 53.9733ZM18.3419 55.8912C18.277 55.8588 18.2231 55.8084 18.1866 55.7463C18.1501 55.6841 18.1327 55.6129 18.1365 55.5411V50.92C18.1309 50.8476 18.1475 50.7753 18.1842 50.7123C18.2208 50.6493 18.2758 50.5987 18.3419 50.5671H17.3209L15.6004 54.5881L13.8561 50.5671H12.7994C12.8691 50.5983 12.9288 50.6476 12.9724 50.7098C13.0159 50.772 13.0415 50.8446 13.0465 50.92V55.5441C13.0495 55.6157 13.0318 55.6867 12.9954 55.7487C12.959 55.8107 12.9055 55.8611 12.8411 55.8941H13.6388C13.5726 55.8621 13.5168 55.8123 13.4778 55.7504C13.4389 55.6885 13.4183 55.617 13.4186 55.5441V51.6142C13.4186 51.5436 13.4007 51.4113 13.4007 51.4113L13.4721 51.6142L15.3921 56L17.3507 51.4878L17.4072 51.3083C17.3984 51.3628 17.3934 51.4179 17.3923 51.473V55.5411C17.3955 55.6131 17.3775 55.6845 17.3405 55.7466C17.3035 55.8087 17.2492 55.8589 17.184 55.8912H18.3419ZM23.7504 54.4204C23.7504 53.1262 22.1787 53.0173 22.1787 53.0173C22.1787 53.0173 23.2503 52.7026 23.2503 51.779C23.2503 50.7289 21.9585 50.5641 21.4197 50.5641H19.9135C19.9835 50.5921 20.0426 50.6414 20.0823 50.7049C20.1219 50.7684 20.1399 50.8428 20.1338 50.9171V55.5411C20.1379 55.6148 20.119 55.6879 20.0796 55.7505C20.0402 55.8131 19.9822 55.8623 19.9135 55.8912H21.6251C23.3218 55.8912 23.7504 55.0293 23.7504 54.4204ZM22.4972 51.826C22.4972 52.8144 21.6043 52.8908 21.2113 52.8908C21.0208 52.8908 20.878 52.8761 20.878 52.8761V50.8995C20.878 50.8995 21.0625 50.8848 21.4018 50.8848C21.9257 50.8848 22.4972 51.1436 22.4972 51.826ZM22.911 54.341C22.911 55.5176 21.7501 55.5794 21.253 55.5794C21.1276 55.5808 21.0022 55.5729 20.878 55.5558V53.235C20.878 53.235 21.2679 53.2203 21.515 53.2203C22.1787 53.2203 22.911 53.4233 22.911 54.341ZM29.6709 55.8912C29.4832 55.8208 29.3113 55.7149 29.1649 55.5794C28.7324 55.002 28.3348 54.3999 27.9742 53.7762C27.8931 53.632 27.7832 53.5054 27.6512 53.4043C27.5192 53.3032 27.3678 53.2296 27.2062 53.1879C27.5418 53.1585 27.8548 53.0084 28.0858 52.766C28.3168 52.5236 28.4498 52.2059 28.4594 51.8731C28.4594 51.3789 28.1171 50.5641 26.5305 50.5641H25.0422C25.1083 50.5966 25.1636 50.6471 25.2016 50.7097C25.2395 50.7722 25.2586 50.8442 25.2566 50.9171V55.5411C25.2567 55.6133 25.2367 55.684 25.199 55.7458C25.1612 55.8075 25.107 55.8578 25.0422 55.8912H26.2329C26.1669 55.8585 26.1113 55.8086 26.0719 55.7469C26.0326 55.6852 26.011 55.614 26.0096 55.5411V53.385H26.471C26.8818 53.385 27.0485 53.7203 27.2539 54.0351C27.5337 54.4734 27.8164 54.9528 28.2213 55.5411C28.2897 55.6528 28.385 55.7458 28.4988 55.8121C28.6126 55.8783 28.7412 55.9156 28.8731 55.9206L29.6828 55.9059L29.6709 55.8912ZM27.6587 51.8966C27.6687 52.0537 27.6448 52.2111 27.5885 52.3584C27.5322 52.5056 27.4449 52.6393 27.3322 52.7506C27.2196 52.8619 27.0843 52.9482 26.9353 53.0039C26.7863 53.0595 26.627 53.0831 26.468 53.0732C26.2597 53.0732 26.0067 53.0556 26.0067 53.0556V50.8995C26.0067 50.8995 26.2448 50.8759 26.602 50.8759C26.7413 50.8672 26.8809 50.8874 27.0118 50.9352C27.1427 50.9831 27.2621 51.0574 27.3622 51.1536C27.4623 51.2497 27.5409 51.3655 27.593 51.4935C27.6451 51.6214 27.6695 51.7588 27.6646 51.8966H27.6587ZM31.5908 55.8912C31.5267 55.8575 31.4734 55.807 31.4366 55.7452C31.3998 55.6834 31.3811 55.6128 31.3824 55.5411V50.92C31.3791 50.8476 31.397 50.7758 31.4339 50.7132C31.4709 50.6506 31.5254 50.5998 31.5908 50.5671H30.418C30.4848 50.5987 30.5407 50.649 30.5788 50.7118C30.6169 50.7745 30.6355 50.8469 30.6323 50.92V55.5441C30.6338 55.6165 30.6145 55.6878 30.5765 55.7498C30.5386 55.8118 30.4836 55.8618 30.418 55.8941L31.5908 55.8912ZM38.178 53.1409C38.178 52.4614 37.7673 50.5641 35.133 50.5641H33.1595C33.2259 50.5957 33.2812 50.6462 33.3184 50.7091C33.3555 50.772 33.3727 50.8444 33.3678 50.9171V55.5411C33.371 55.6131 33.3529 55.6845 33.316 55.7466C33.279 55.8087 33.2247 55.8589 33.1595 55.8912H34.9841C37.2434 55.8912 38.178 54.3969 38.178 53.1409ZM37.3535 53.1409C37.3535 54.3175 36.8296 55.5558 35.0228 55.5558H34.1298V50.92C34.4647 50.8969 34.8005 50.891 35.1359 50.9024C36.779 50.9024 37.3565 52.1731 37.3565 53.1438L37.3535 53.1409ZM44.7802 53.6292H43.6104C43.6743 53.6634 43.7274 53.7146 43.7636 53.7769C43.7999 53.8392 43.8179 53.9103 43.8157 53.9821V55.2499C43.4089 55.4998 42.9373 55.6275 42.4584 55.6176C40.8004 55.6176 40.1991 54.2704 40.1991 53.1409C40.1991 51.8731 40.9671 50.823 42.4911 50.823C42.8975 50.8264 43.2933 50.9517 43.626 51.1823C43.9588 51.4129 44.2128 51.7379 44.3545 52.1143C44.3545 52.0996 44.2979 50.9377 44.2979 50.9377C43.7098 50.6621 43.0703 50.5098 42.4197 50.4906C40.3897 50.4906 39.3687 51.9084 39.3687 53.2409C39.3687 54.8793 40.7617 55.9588 42.3245 55.9588C43.1448 55.9455 43.9508 55.7441 44.679 55.3705C44.6126 55.2703 44.5736 55.1547 44.5658 55.0352V53.9939C44.5641 53.9211 44.5834 53.8492 44.6213 53.7868C44.6592 53.7243 44.7143 53.6737 44.7802 53.6409V53.6292ZM49.5933 55.0617C49.2957 55.5558 48.998 55.547 48.1437 55.5558C47.7687 55.5558 47.3966 55.5235 47.224 55.5088V53.0938H48.5188C48.5797 53.1053 48.6368 53.1315 48.6851 53.1699C48.7334 53.2084 48.7713 53.258 48.7956 53.3144V52.5555C48.7714 52.6116 48.7334 52.6609 48.685 52.6989C48.6367 52.7369 48.5796 52.7625 48.5188 52.7732H47.2269V50.8848L48.5902 50.8995C48.7157 50.8884 48.8421 50.9078 48.9583 50.956C49.0745 51.0042 49.177 51.0797 49.257 51.176L49.2391 50.5641H46.2625C46.331 50.5944 46.3887 50.6442 46.4285 50.707C46.4683 50.7699 46.4882 50.843 46.4858 50.9171V55.5411C46.4881 55.6168 46.4664 55.6912 46.4236 55.754C46.3809 55.8168 46.3194 55.8647 46.2476 55.8912H49.4326L49.5993 55.0617H49.5933Z" fill="white"/>
</svg>
